/* XPM */
static char *_0384_bad3777923a644c6fa3cc9e594066f59564bcdd1084e45c22c8221bb45868ef2[] = {
/* columns rows colors chars-per-pixel */
"64 64 198 2 ",
"   c #000000",
".  c #080406",
"X  c #0B0B01",
"o  c #010609",
"O  c #0A0508",
"+  c #01090B",
"@  c #0D0B0C",
"#  c #13010B",
"$  c #19010F",
"%  c #110E0F",
"&  c #161500",
"*  c #181601",
"=  c #1B1A02",
"-  c #010E13",
";  c #1D0112",
":  c #120F10",
">  c #021016",
",  c #01141C",
"<  c #00181F",
"1  c #141213",
"2  c #191516",
"3  c #1C1817",
"4  c #1B1719",
"5  c #1D1A1B",
"6  c #221F01",
"7  c #240115",
"8  c #280017",
"9  c #270118",
"0  c #2B011A",
"q  c #32011D",
"w  c #221D1E",
"e  c #252301",
"r  c #282601",
"t  c #2D2A02",
"y  c #232108",
"u  c #312F01",
"i  c #353301",
"p  c #383602",
"a  c #3B3901",
"s  c #24201F",
"d  c #011721",
"f  c #011A25",
"g  c #011E29",
"h  c #011E30",
"j  c #360220",
"k  c #3B0122",
"l  c #231F21",
"z  c #281F22",
"x  c #01212D",
"c  c #012533",
"v  c #012936",
"b  c #01263A",
"n  c #022A3B",
"m  c #252222",
"M  c #292425",
"N  c #2C2827",
"B  c #2C2629",
"V  c #2D292B",
"C  c #312A2C",
"Z  c #362F32",
"A  c #363132",
"S  c #3A3334",
"D  c #3F3A39",
"F  c #413D01",
"G  c #450225",
"H  c #4A0227",
"J  c #490129",
"K  c #500024",
"L  c #520129",
"P  c #5D012D",
"I  c #5E0131",
"U  c #62002E",
"Y  c #6A012D",
"T  c #650031",
"R  c #6B0134",
"E  c #6C0139",
"W  c #720235",
"Q  c #7A0135",
"!  c #73013B",
"~  c #7A033D",
"^  c #433C3D",
"/  c #4B4602",
"(  c #4A4801",
")  c #514B02",
"_  c #5B5401",
"`  c #5A5502",
"'  c #635C02",
"]  c #6C6302",
"[  c #6B6503",
"{  c #736400",
"}  c #736E05",
"|  c #7B6C01",
" . c #767101",
".. c #7E7201",
"X. c #022E43",
"o. c #012C4C",
"O. c #023144",
"+. c #093747",
"@. c #01334B",
"#. c #03394D",
"$. c #012E57",
"%. c #023352",
"&. c #013A54",
"*. c #01365C",
"=. c #023C5B",
"-. c #013164",
";. c #023C65",
":. c #01326A",
">. c #023C6B",
",. c #013573",
"<. c #033F73",
"1. c #7A0242",
"2. c #463F42",
"3. c #024259",
"4. c #014362",
"5. c #034A64",
"6. c #01446A",
"7. c #024B6B",
"8. c #024474",
"9. c #014B73",
"0. c #03447C",
"q. c #024D7C",
"w. c #015475",
"e. c #02517D",
"r. c #03597C",
"t. c #484244",
"y. c #86013A",
"u. c #84033C",
"i. c #95003E",
"p. c #817502",
"a. c #847A02",
"s. c #8A7B03",
"d. c #830145",
"f. c #870347",
"g. c #8C024B",
"h. c #950144",
"j. c #96024B",
"k. c #8C0150",
"l. c #940253",
"z. c #970556",
"x. c #A3004A",
"c. c #AB004E",
"v. c #A70359",
"b. c #B40459",
"n. c #A70463",
"m. c #B00465",
"M. c #8B8201",
"N. c #8A8306",
"B. c #918703",
"V. c #948B02",
"C. c #978E07",
"Z. c #9C9402",
"A. c #A59D03",
"S. c #AB9E01",
"D. c #A79E08",
"F. c #A7A001",
"G. c #ACA405",
"H. c #ADA708",
"J. c #B2AC02",
"K. c #B9AD00",
"L. c #B2AC0A",
"P. c #B6B102",
"I. c #BBB402",
"U. c #BFBC01",
"Y. c #C3BC03",
"T. c #C3BF09",
"R. c #C6C202",
"E. c #CBC602",
"W. c #CBC706",
"Q. c #CECA0B",
"!. c #D1CC03",
"~. c #D5CE0A",
"^. c #D5D202",
"/. c #D9D504",
"(. c #DCD903",
"). c #DBD80A",
"_. c #DCD912",
"`. c #E2DE03",
"'. c #E2DE0D",
"]. c #E5E203",
"[. c #EAE503",
"{. c #EDEB04",
"}. c #E8E20F",
"|. c #EBEA0D",
" X c #F0ED05",
".X c #F4F204",
"XX c #EBE714",
"oX c #F3F210",
"OX c #024380",
"+X c #024C82",
"@X c #015381",
"#X c #035C80",
"$X c #05578D",
"%X c #026289",
"&X c #016695",
"*X c #03739E",
"=X c #0E769D",
"-X c #0477A0",
/* pixels */
",.  <.    +X  +X+X  0.    6.  OXE   U     U   E Y   E     W   T s.  p.    |   s.|   p.    p.  ..@   @     @   @ %   @     @   @ ",
",.  OX$X+X0.  9.8.  0.0.6.8.  <.R   W U R W   T U   U U T P   T s.  | | { {   { |   | s.p.{   | @   : @ @ @   @ @   @ 1 @ @   @ ",
"                                                                                                                                ",
"-.  >.+X9.q.  e.q.  q.9.6.6.  W W   E E R I   E ~   E ! ! W   s.s.  s.p.p.{   | {   p.| { s.  @ @   @ @ @ 1   @ 1   : @ @ @   :.",
"-.  >.    @X  9.q.  6.    6.  R T   R     W   ! !   E     ~   a.p.  s.    a.  | p.  p.    |   @ @   @     @   1 %   @     @   :.",
"    >.    q.        q.    E         R     1.        !     M.        M.    s.        ..    @         1     %         :     ;.    ",
"-.  ;.6.6.9.  e.@X  e.9.6.R   E E   ! T E E   1.E   1.1.1.M.  M.M.  B.M.a.p.  a.a.  ....| @   @ @   : 1 2 1   1 1   @ @ @ >.  :.",
"                                                                                                                                ",
"$.  ;.;.=.9.  7.@X  9.! E 1.  E W   ! ! E 1.  f.f.  g.B.V.Z.  C.Z.  B.B.V.B.  M.M.  M.@ @ O   % 1   @ @ @ @   % :   % =.;.*.  $.",
"$.  *.d , 6.  7.e.  e.7 ; E   E R   ! 9 7 1.  d.1.  z.i i C.  Z.Z.  C.p p M.  M.M.  M.  o O   @ 1   @ . @ @   @ 1   @ < d ;.  o.",
"                                                                                                                                ",
"o.  %.=.*.4.  4.9.  R u.T W   ~ !   ~ ~ 1.d.  k.l.  A.A.A.H.  F.G.  A.G.F.Z.  Z.Z.  2 1 @ :   1 @   2 @ 1 %   @ :   4.=.;.%.  o.",
"                                                                                                                                ",
"o.  %.    &.  =.T   W .   u.  f.y.  f.. . l.  n.L.  J.. . I.  P.P.  P.. . J.  F.1   %     1   @ @   1     @   @ 3.  =.    X.  o.",
"n   o.%.@.&.  @.I   T Q y.Q   u.f.  f.g.g.l.  n.L.  J.J.I.I.  I.I.  P.P.J.P.  G.1   1 @ @ 2   % 1   1 1 1 :   @ =.  &.%.%.%.  o.",
"                                                                                                                                ",
"b   b @.X.O.  J L   R W Q y.  u.h.  j.v.z.m.  P.U.  T.R.Q.R.  E.Q.  R.W.R.Y.  2 5   2 1 2 @   % :   @ @ @ @   =.O.  #.X.@.X.  b ",
"    X.    @.        L     y.    .   j.    n.  X X   R.    Q.  X X   E.    R.        1     1         @     @         @.    n     ",
"b   X.    G   G G   L     y.  i.x.  b.    U.  R.E.  ~.    /.  ^./.  /.    l   2 5   5     2   1 @   @     *.  X.O.  O.    n   b ",
"c   b X.X.J   k H   L Y Y y.  i.x.  v.v.m.I.  W.E.  !.^./._.  (.(.  /.(.!.w   l w   M 5 1 2   1 5   @ @ @ *.  X.O.  n n X.b   x ",
"                                                                                                                                ",
"g   c k j k   j G   H Y U Q   h.c.  b.R.W.E.  !./.  '.`.].].  ].XX  [.V B B   : w   w 4 5 M   1 :   @ <.>.@.  n n   n n n c   c ",
"x   c     k   q q   G     y.  h.b.  v.    E.  E.).  `.    [.  [.|.  [.    l   M V   w     1   : 2   @     o.  X.c   c     c   g ",
"<   0     q   7 0   L     u.  I ~   Y.    !.  J.L.  `.    [.  E.E.  A     S   5 2   M     2   @ 1   0.    X.  g g   c     c   d ",
"g   q q 0 j   q k   k K P Q   h.b.  I.Y.Y.!.  _./.  ].].|.|.  {.{.  A s C ^   w M   5 m 2 2   1 @   +X*.o.X.  n c   c c c x   g ",
"                                                                                                    .                           ",
"9   0 q 0 0   q q   k G P U   f.P.  Y.K.I.E.  ~.^.  ].[.|. X  oXZ   ^ 2.z A   4 A   C 1 1 5   2 $X  8.%.%.n   c x   x x c g   g ",
"7   0     0   0 q   G     U   j.S.  K.    Y.  /.`.  ].    .X  .XA   C     Z   M M   M     w   @ +X  0.    n   c x   x     g   f ",
"    ;     ;         0     k         a.    Z.        !.    |.        B     A         4     1         n     g         <     ,     ",
"7   7 0 0 0   0 0   q H L L   C.S.  S.I.T.Y.  Q.).  XX|.{..X  B C   C C C w   M C   5 m 4 w   &X@X  ;.@.o.b   x g   g f c f   7 ",
"                                                                                                                                ",
"7   7 7 ; 7   9 0   q q j [   a.G.  A.C.V.Y.  ^.).  `.E.R.A   C t.  2.M l 4   w 5   m 2 2 *X  @Xe.  ;.b c c   x g   f < f 7   7 ",
"7   7 ; ; 7   0 0   q 0 q '   s.D.  H.N.N.Y.  Q.^.  }.R.Q.C   S D   N 3 w w   N s   V 1 1 *X  $Xe.  &.b g c   x x   f , < 7   7 ",
"                                                                                                                                ",
"7   7 7 9 0   0 0   0 F F `   N.p.  Z.A.H.J.  R.E.  _.M ^ V   C V   M m 3 A   w M   1 -X&X=X  #Xq.  %.n v c   g g   f 7 7 7   7 ",
"    ;     ;         7     p         '     a.  o     S.    1         B     m         1     5.        v     d         ,     ;     ",
"7   7     7   7 0   u     /   ' [   a.    H.  I.U.  2     C   4 M   5     l   w 4   *X    r.  5.3.  @.    c   x f   7     7   7 ",
";   7 9 7 7   7 7   u F a )   _ ]   ..M.C.F.  L.I.  : l % l   5 5   l m 5 M   l 5   =X%X#Xw.  3.3.  O.n c x   g f   9 7 9 7   ; ",
"                                                                                                                                ",
";   7 0 7 7   0 r   t p a F   ( `   }  ...a.  Z.4   5 5 5 m   5 m   2 M l m   5 &X  w.w.4.5.  #.#.  n n c x   g 7   7 7 7 7   7 ",
"#   7     7   ; e   i     F   a a   [     N.  } 2   w     3   5 5   @     w   1 7.  r.    5.  n n   n     g   , ;   7     7   # ",
"7   7     7   e t   u     p   F (   `     }   @ 1   %     M   M l   m     1   r.r.  7.    #.  O.n   c     x   0 0   7     7   ; ",
";   7 7 7 0   r t   u i i i   F (   _ ` ' [   % 5   5 % 5 %   : l   5 2 @ 1   w.w.  5.5.=.O.  O.c   c c x x   0 9   7 9 9 7   7 ",
"                                                                                                                                ",
";   7 7 7 t   r r   t e t t   p a   / ( ) 1   1 @   2 : 4 :   @ 2   @ 1 1 5.  5.=.  3.X.O.n   n c   g x f 7   0 7   7 9 7 7   ; ",
";   7     r   r t   r     u   p a   a     O   1 @   1     %   % %   %     5.  3.&.  #.    O.  c c   g     0   0 8   9     7   $ ",
"o   7     t         e     r         a     @         @     O         1     3.    o   O.    v         f     8         9     7     ",
"$   ; t r t   r t   r r r r   u t   i @ @ @   @ 1   O 1 @ 1   1 1   . &.@.&.  X.#.  O.v v v   g g   f 7 7 7   7 7   9 7 7 7   7 ",
"                                                                                                                                ",
"$   e r e u   r e   6 e e 6   e r   @ @ @ .     .   @ . @ @   @ @   O.O.n n   n n   c c c f   < d   7 ; ; 7   7 7   8 7 0 7   ; ",
"$   e     t   e e   e     r   e e   @     O   @ @   @     @   @ O   +.    X.  h v   f     g   g g   7     ;   7 7   7     7   ; ",
"                                                                                                                                ",
"=   e e e r   e e   e = = =   = .     . + @   @ .   @ @ + @     x   x x g g   g f   d d d d   , $   $ $ $ 7   7 7   7 7 9 7   ; ",
"                                                                                                                                ",
"6   e X X e   = *   = X o &     o   o     .   . .   .   . .   x <   < + o <   , ,   > O o >   $ $   $   . #   $ ;   $ . O 7   = ",
"=   6 6 6 =   y =   = = = =   . .   X   .     . .   o X   .   < d   , < < ,   , ,   , , > -   $ #   $ # $ $   $ $   $ $ 7 ;   = ",
"                                                                                                                                ",
"=   = * = =   & &   & & &       .   . o . o     .   .     >   , ,   > > > >   - -   - > - #   # #   # # # #   # #   $ $ $ =   & ",
"    =     =         &               .     o               ,         >     -         -     #         #     $         #     =     ",
"=   =     =   * *   &     .   .     o     .   .     O     -   - >   >     -   > +   -     #   O #   #     #   # #   $     =   = ",
"*   * = & &   & &   * . o .           .         .     > - >   - -   - > - -   - -   - # # #   # #   # # # #   $ $   # & = *   = ",
"                                                                                                                                ",
"=   = & * &   & &   o o o o   . o   X + .     .     > > - -   - -   - - - -   - -   # # # #   # #   # # # #   # #   & & & &   & ",
"*   &     &   & *   .     .     .               .   -     -   - -   >     -   - -   #     O   # #   O     #   # $   &     &   = "
};
