/* XPM */
static char *_1039_29d70a1c0bacc11bf8b357e9f24da20874672d5254fde4a9ec01fa2e5aa67a9e[] = {
/* columns rows colors chars-per-pixel */
"64 64 252 2 ",
"   c #050104",
".  c #0A0304",
"X  c #0C0A05",
"o  c #05020A",
"O  c #0A010B",
"+  c #060909",
"@  c #0A0B0B",
"#  c #130404",
"$  c #1C0103",
"%  c #130D06",
"&  c #1B0805",
"*  c #12030C",
"=  c #1C030B",
"-  c #150A0B",
";  c #091208",
":  c #0C110C",
">  c #151306",
",  c #1B1506",
"<  c #151309",
"1  c #191709",
"2  c #1B1B0B",
"3  c #040213",
"4  c #0B0213",
"5  c #050C15",
"6  c #04031B",
"7  c #0C031A",
"8  c #140213",
"9  c #1B0314",
"0  c #140A15",
"q  c #1A0A12",
"w  c #13031C",
"e  c #1C031B",
"r  c #0A1318",
"t  c #161615",
"y  c #240102",
"u  c #230A05",
"i  c #280708",
"p  c #370705",
"a  c #281A06",
"s  c #241B0A",
"d  c #381609",
"f  c #23031B",
"g  c #280318",
"h  c #360417",
"j  c #340914",
"k  c #3B0A15",
"l  c #3C051B",
"z  c #3C091A",
"x  c #211815",
"c  c #371517",
"v  c #142615",
"b  c #292607",
"n  c #383407",
"m  c #2F2811",
"M  c #050224",
"N  c #0B0224",
"B  c #040628",
"V  c #0B012C",
"C  c #130221",
"Z  c #180128",
"A  c #10172F",
"S  c #0C0234",
"D  c #050439",
"F  c #170237",
"G  c #230323",
"H  c #2C0224",
"J  c #2A0629",
"K  c #330324",
"L  c #3A0626",
"P  c #2D172B",
"I  c #36162A",
"U  c #260738",
"Y  c #380237",
"T  c #28123C",
"R  c #381738",
"E  c #06322F",
"W  c #480906",
"Q  c #560606",
"!  c #45071C",
"~  c #4A091E",
"^  c #4C1112",
"/  c #650505",
"(  c #73080C",
")  c #442D0F",
"_  c #490525",
"`  c #520526",
"'  c #501A28",
"]  c #480337",
"[  c #560239",
"{  c #710831",
"}  c #5C3726",
"|  c #5B5427",
" . c #6F573D",
".. c #050545",
"X. c #190347",
"o. c #151A4E",
"O. c #060756",
"+. c #1E065A",
"@. c #270649",
"#. c #390547",
"$. c #300E4C",
"%. c #210559",
"&. c #0B3C47",
"*. c #23205B",
"=. c #070864",
"-. c #0C0F6E",
";. c #180466",
":. c #260365",
">. c #290877",
",. c #301170",
"<. c #1B216F",
"1. c #2A2374",
"2. c #470447",
"3. c #461848",
"4. c #470656",
"5. c #530D52",
"6. c #540558",
"7. c #6A0349",
"8. c #6D0553",
"9. c #4E3C54",
"0. c #490365",
"q. c #450276",
"w. c #57037C",
"e. c #660566",
"r. c #700A6C",
"t. c #690B74",
"y. c #741775",
"u. c #115155",
"i. c #2D6A6D",
"p. c #775A44",
"a. c #6E6154",
"s. c #736175",
"d. c #8F0E0A",
"f. c #A90B04",
"g. c #8B132F",
"h. c #D30B0E",
"j. c #E40C0A",
"k. c #F80507",
"l. c #E3071A",
"z. c #ED3215",
"x. c #E80427",
"c. c #F40232",
"v. c #935520",
"b. c #CE4F0C",
"n. c #F67832",
"m. c #8E0357",
"M. c #A9114E",
"N. c #932649",
"B. c #B00C6C",
"V. c #9E2370",
"C. c #F4034C",
"Z. c #C62159",
"A. c #E80773",
"S. c #95654E",
"D. c #917C6A",
"F. c #F1A732",
"G. c #EBC33E",
"H. c #90884B",
"J. c #A58D67",
"K. c #B0AF65",
"L. c #DBB264",
"P. c #D1C355",
"I. c #F8DA53",
"U. c #FFEB4D",
"Y. c #FEFC58",
"T. c #FDFC66",
"R. c #FFF16A",
"E. c #0A1591",
"W. c #280285",
"Q. c #370591",
"!. c #3401A9",
"~. c #102FAD",
"^. c #4F098C",
"/. c #6B0C8A",
"(. c #760B88",
"). c #780499",
"_. c #4D09AB",
"`. c #7A06A4",
"'. c #6901B5",
"]. c #7925A9",
"[. c #3543AF",
"{. c #644182",
"}. c #123AD2",
"|. c #5712C8",
" X c #6E0DD0",
".X c #6A25C3",
"XX c #5103E4",
"oX c #7010E5",
"OX c #2C45D2",
"+X c #1F48E4",
"@X c #2249E7",
"#X c #4145C3",
"$X c #861A89",
"%X c #8E1393",
"&X c #AC1487",
"*X c #8B2C8F",
"=X c #B62B8E",
"-X c #920FAC",
";X c #B90BA7",
":X c #A80FB0",
">X c #9E21B1",
",X c #A420BC",
"<X c #CE108B",
"1X c #F0118E",
"2X c #D414AD",
"3X c #D908B7",
"4X c #F011AF",
"5X c #C925A5",
"6X c #9477B7",
"7X c #D56194",
"8X c #EE6794",
"9X c #8B0BCE",
"0X c #AF16C9",
"qX c #A222C1",
"wX c #8C0FE6",
"eX c #B60FF1",
"rX c #D10DCF",
"tX c #EF16D4",
"yX c #E722D4",
"uX c #C80CF8",
"iX c #D30FF0",
"pX c #D812FD",
"aX c #F513E7",
"sX c #E70BFB",
"dX c #F908FB",
"fX c #F915F7",
"gX c #FD14FD",
"hX c #FD1DFE",
"jX c #F925EE",
"kX c #FB26FA",
"lX c #FE25FE",
"zX c #4B9790",
"xX c #5BA9B6",
"cX c #65B5B7",
"vX c #6AB6C1",
"bX c #7AC6C5",
"nX c #A59899",
"mX c #C8AF9B",
"MX c #E1D2A0",
"NX c #F4F3B4",
"BX c #C7BBCF",
"VX c #FC98FE",
"CX c #FDA9FD",
"ZX c #E2D7DB",
"AX c #F3E7C5",
"SX c #FDFCC9",
"DX c #F9EDD0",
"FX c #FDFAD9",
"GX c #FEFDE5",
"HX c #FEFDEB",
"JX c #FDFDF4",
"KX c #FDFEFB",
/* pixels */
"  > SX{ X   o 3 C q.* . 4 #.'.*X .k j 8 .     * f y $ k.y .         . $ k.y = y * .   O 8 h z } *X^.F 3 O * q.0 3 o   . ` FX,   ",
"  X ^ b X   o B 5 -X0 O o 8 X.oXP j gXf *     . BX{ y y y #         . $ y y ~ 6XO     O f gXg c |.X.7 o @ e (.5 ..o + % d ' X   ",
"    , S.p X   o 3 w 4.4 o 4 qXpX$.GXL / 9 O     : g i $ d.y .     . $ h.$ i u O       9 ` _ FX4.uX>X3 O O q.7 3 3 + X Q K.% X   ",
"=.  X b K.>   + o 6 /.C O 3 6 nX_.I k yXK O     . i &X= y d.$     # / y = <Xm O     O h tXh P  Xs.O O o 0 -X5 5 o   X H.a X   O.",
"    6 > ^ a X + m =.7 6.O o 4 q.wX$.GX~ M.e O   . * Y 9 $ p y . . $ W $ = H * .   . e M.` GXT eX^.o o O Y 7 D | + X b d X o o   ",
"  M   X , FX> + + 3 3 7 y.O o 7 V ;.R ! [ K *     @ u B.= y k.y # j.y $ <X0 O   + O K r.! R >.F 3 o   6.Z 3 3 + X > SX,     ..  ",
"  %Xo N ; d.b ; + o +X3 (.O o O :.:.+.D.L :Xf o   O 8 .X= $ y * $ y = 9 ].8 O   O f &X_ mXF Q.>.o o 4 >X6 +X    X b ( > N o t.  ",
"    O o X > HX2 + o O 3 0 6.O o 3 Z E.T K _ L * O   o 0 j = $ . # # = ! q O o O O L ] J U -.V 3 o O t.4 3 3 o + > JX1 . + 3     ",
"  . 4.O + X W a ; + o =.6 4.4 o o N D !.J ! CXf O   3 * ,.! # . . # j Q.e o O O f VXz P ;...V o o 4 #.3 E.o + @ 2 / % o o (.    ",
"    O O .   , NX2 X + 3 3 o 4 .   o V oXT AX~ k 8 O . O w q *   . * 9 e O   o 8 h _ MXT XXM o o O 8 4 o 5   X 2 SX1   . 3 O     ",
"    . O D O - a n t + o 3 3 0.O   O 3 S oXI c aXg O   O O nX<X+ O M.BX* o . O g fXc R oXS 6 o   O U o M 3 + @ b c %   B 8 O   . ",
"      O 4 O . > b E @ + o   O e   o o S eX$.HXk g.9 O   . 6.e X * 9 Y O   O = { h HX$.uXM o . . 8 O   o + + E n >   o . O       ",
".     . o S O X 2 FXA 3 o   o O Y     3 V >.P j V.J 8 o   O = 1X4X& . .   O f ;Xj P _.V 3   O 9 O O     5 r NXs .   X.O   .     ",
"#       o 8     X ^ zX; O     o y.  o O >._.$.DXh m.9 O   O e.q 9 y.O   O e M.h FX$. X:.O o O e.O     o ; cXa < +   o .       # ",
"u .             + 1 KX1.&.      O $X  o 3 F :.5.i _ l 8 O   O 8 * O     * J [ j R ;.F 4 o o $XO     + i.<.HX1     3         O u ",
"W #             . X N.t ; +       H o   o F X.,.d h aXf O o . * 9 O . O f 4Xh m $.;.:.O   3 2.O     + 5 v N.#             + % W ",
"G., .         *   + > FXA ; o     o 9 O O 4 #. X*Xp.d [ G O O O O o 4 F _ z ) *XQ.X.4 o o H o     + r o.GX2     8         . i P.",
"z.^ &           3   X 1 m t @     o 4 8 o O 7 X.wXI z gX2.f O O O O f m.gXz c .XX.Z O o w 8       O 2 v 2 X   .           & ^ b.",
"8XT.i .             X > H.v.> +     o w O o 3 ,XsX$.HX~ 1X%X= o O 8 e.B._ FX0.uX>Xo o O O O     . u } K.>     .         . p Y.8X",
"lXl.^ & .         S   X b mX2 r +   o w.Z O o M X._.I L rX7.H O O H 7.aXz P  XS 7 O   4 -X4   + + a K.m +   B         . & ^ j.lX",
"3XjXR.p #               < ) vX0 o   =.3 6.8 o 4 U wX$.GX` A.dX8 8 iXA.` HX$.uX0.o O O J 4 D   o @ zXn % .             # p T.tX4X",
":XgXx.( $ .         9   O s HXo.xX+ 3 o w y.O O 4 F W.5.! 7.7.H H 7.m.! $.W.F 4 o O 6.F 3 o o xXA FX2 X   w         . u / x.gX:X",
"iXrXlXT.p # .     .       % x E : o o +X3 $XO O O Z W.>.J.! 3XaXdX<X~ mX>._.Z O o 8 %X4 +X  + r &.b %     . o       ; p Y.kXiXeX",
"0X-XaXc.b.y .     O * .   X 2 HXo.@ o 3 3 7 6.O o 7 X. X%Xd ! 7.[ ' d (._.X.7 O O y.7 3 + o X <.JX1 X   * * .     . a f.c.dX-X-X",
";.dXrXhXF.Q * . o 9 f O o   X ' m r + o =.5 0.0 + O C ;.{.' j dXdXk I 1.>.Z O . 0 4.3 E.+ + > s N.X   o O 9 e O   # W G.kX3XsX+.",
"N fX).tXC.U.i . . 8 dX* .     > NXt + o o 6 7 ^.* . 4 ).uXy.AXK L MX*XeXw.8 O * ^.w 3 o o + A SX>     O O dX8 . . y I.c.aX-XjXZ ",
"* OXdX:XhXj.W #   * 8 O   6   X s n ; + o 3 5 0X9 | @ w X.s.q g g 9 nXX.7 4 m e ,X4 M + + @ b c +   3   * f *   # W h.kX:XdX[.6 ",
". e :X_.3X4XY.p . . * O         : n E X o o D 7 S.= <.4 y.^.0 9 e f ^.%X4 *.u } B 6 o   + E ) >         . . . . d Y.1X3X).rXC o ",
". O X.0X).gXl./ & O .       F   . s SXt + + 5 6 J ] a.4 O J 4 4 8 - J O . nXy 4.5 3 + + 1 NX2 .   S         . & Q l.gX).pXO.4 . ",
"  O w U '.;XjXY.W # .         .   : d zXX   3 ~.w =X0 N o o C * O X.o + ..# V.4 E.o + X cXd % + o         . . p Y.aX2X^.@.8 o   ",
"    O 7 %.^.gXc.d.i .         3.  . , HX1 X   + 4 C *X# B + O O O O + 4 X *XJ @ o +   1 HX, .   3.        . y ( x.fX/.q.N o     ",
"      o Z sX:XfXI.W # .           . # Z.b X   o ~.7 2.* +       O     + O 8.4 +Xo   X b Z.%               . W Y.kX:XuXS 3       ",
"    o O D dX-XlXI.W # .     o o o   X Z.b X + o ~.4 2.* .     O o     4 * 6.6 }.o   ; b Z.#     .         # p U.lX:XsXS 4       ",
"    O 4 X.w.fXx.f.u .         '   X u JX, +   3 + 5 $Xo 5   O O o O   O + V.7 3 +     1 HXs X   3.      . . u d.x.gXt.:.7 O     ",
"  o 7 F 9X;XkXY.p #             + X ^ i.X   + }.4 =X3 6 O + w O * X.o o B # V.0 ~.  + X zXd %               # p T.jX;X_.@.4 o   ",
"  O S 0X).gXl./ &   o       Z   . 2 FX> X + 3 6 G 6.} 4 O G w - 8 0 U o 4 a.L 4.3 3   + < SX2 +   F           & Q l.fX%XiX=.O   ",
"o w %X).3XtXY.p # . O O         % a u.X o o ..7 7XO 1.o 6.^.0 w 0 G ^.(.4 *.- S.C B 5 + ; E b -           O . . p Y.1X3X^.rXw o ",
"4 [.dX:XlXl.Q $ . * * O   M   + x | < + + 6 5 ,Xx J.O 7 @.9.q f f - s.X.7 O | e qX6 M + + % n d X   6   O * * . # Q j.lX:XdX#X4 ",
"Z fX`.tXC.U.i . . * dX*     . < NXt + + o + 0 ^.- . 8 -XpXe.DXK L AX$XeX/.4 * 8 ^.7 3 + + O t SX;     + * dX9 O X i I.c.aX).kXZ ",
";.dX0XhXn.W $ .   9 e O o   X ' b @ o o O.4 w.9 O O 7 ;.6XL h dXdXh ' {.;.C O O 8 #.3 E.o o r x g.;     . Z e .   # W F.hXrXsX+.",
"iX).gXc.b.u . .   . * .   . > GXo.+ o o 6 7 #.4 . 4 X.oX:X^ ` { [ ` ^ $X|.X.3 o 4 t.3 o 3 o + <.JX1 .   * * O     . u b.c.gX-X0X",
"pXrXkXY.p # .     o O   + X v v + + o +X3 t.* O O N >.>.p.~ tXaXdX2X~ D.,.Q.Z o O O $X3 @Xo O ; E b ;     O .     . # p Y.lXrXiX",
"-XgXc.( u .         e   . s HX<.xX  o o 7 $XO O 4 F W.5.z { 8.J K 7.m.L 3.>.F 4 o O e.Z 3 o   cXo.GXs .   C         . $ / c.dX-X",
"rXfXT.p .           +   > n bX* +   -.3 e.4 O o F 9X$.GX_ A.sXe 9 iXA.` HX$.eX$.O O 4 #.3 ..+ o ; cXn >               # p T.tXrX",
"lXx.Q & . .       F   X b MXP A     4 0.Z O o 7 U _.R z 2X7.H O # G 7.tXh R |.F 7 o O w /.4     @ x L.x X   V         . # Q l.kX",
"7XT.i .               ; | v.: o     O Z O O o ,XpX#.JX! 1X-X8 O O 9 r.<X` FX4.pX,X4 O O 8 O     + - v.H.1             . % i T.8X",
"j.Q - .       + 4   @ 2 n v +       O O o O 7 X.oXR h gX[ e . O O o e e.gXh c  XX.w o o O O O     + t m 2 ;   .           & W b.",
"I.i .         .   . 1 SXA 0 o       8 O O N 6. X*XJ._ { f O O . O O * e ] ! p.*X_.@.4 O O H O     + r o.GX>     =         # u P.",
"W -               X N.v r + +   O f O O o V X.W.c h aXf O O O 8 * O . O f tX! u :.+.X.O     2.      + ; v N.+ +     .       # W ",
", +         o   . , JX<.A +       y.O   4 S :.5.d ! K 8     O * = O   o * K _ p 3.+.F 4     $X.     + &.<.KX1 +   o         + u ",
"#     .   e     : ^ i.; o       $XO o o ,.^.%.AXh B.e .   O 5.9 $ y.O   . 9 M.h DX$.'.>.o O o y.o     + : zXd X     . .     + # ",
".       o V   X s FXA B o   o o Y O   3 V :.I j 8.g *     8 # <X4X9 8 o   O g %Xj P W.V 3 o O f O o   o 5 r SXs X   ..O       . ",
"      O 8 O X , b u.@ o o o o G O o o S eXT GXj g.= O   O t.f = * g 2.+   O 8 g.p JXT pXN o o O 8 . o o o + E n %   O 4 O .     ",
"    o O O.  # b | r + o + o @.O     3 S oXI k aXG * . O 8 a.<X* * B.nX8 o o O g fXk I oXS 6 o   4 U o 3 o + r n d - o N O O     ",
"    O 3 O . % MX1 +   o O O w O o o S wXT FX~ ` 8 O   O Z i $ .   = f q O   O 8 L _ DXT XXS o O O w O 3 3 o + 2 NX, . O 8 4     ",
"  O Y o O X d a X + o O.3 0.O o o N D !.P z VXf O . 4 O 1.` # . . . j Q.0 O . O f CX! I W.D M . o . #.3 -.3 + ; x / X   O e..   ",
"    o o + 2 GX, . + 3 6 w Y O O O V !.F P ] L 8 o   4 0 j = $ # . $ = ! 9 O o o 8 L _ K T -.V 4 o O e.7 o o + + 2 JX2 + + O o   ",
"  >Xo o X d.b ; + o @X3 t.4 o O X.;.+. .z >Xf .   o 8 .X= $ y $ $ y = = ].O O   O f &XY J.%.>.>.4 o o $X6 +X+ + @ b d.X 7 o $X  ",
"  M + X , HX>     5 o 3 %Xo O 4 S +.R z ] K *     O - m.= y k.y $ k.$ = <X0 O     * K 7.l R :.S 4 o O t.Z 4 5 + . 1 FX,   o ..  ",
"  o B > Q s X + > -.6 t.O o 3 ^.9XT FX_ B.9 o   . * #.= $ p y . . y W $ y h * .   o e M._ HXT eX^.4 O O #.4 O.m + X a d > 6 o   ",
"O.  + , MX%   + 3 5 0.H O O 4 BX_.P j 5XH *     . - 5X$ $ f.#   . $ ( y = <Xt *     O K yXk I |.nXM o O e /.7 6 +   > K., ; + O.",
"o o & | d .   o M 0 2.O O 4 qXpX$.GXk { 9 o   . - i y $ d.$ .     . y f.= = g *     O 9 _ l FX4.uXqX4 o 4 0.C 5 o + . W S.> +   ",
"+ X d d %   o N 6 ,X9 O O w F oXI j dXg O     O ZXm.= y p .         # y y $ { BXO     O f dXj P  XF 7 o O w %X4 D o   > b ^ X   ",
"  1 NXg.+   o 5 C q.O O O 0. X*XJ.h L 8 o . . # - = = k.#           . $ k.y * = * .   o 8 l h S.*X_.@.4 O 4 q.N o 3   X { FX>   "
};
